<?xml version="1.0" encoding="UTF-8" standalone="no"?>
<!-- Created with Inkscape (http://www.inkscape.org/) -->

<svg
   xmlns:dc="http://purl.org/dc/elements/1.1/"
   xmlns:cc="http://creativecommons.org/ns#"
   xmlns:rdf="http://www.w3.org/1999/02/22-rdf-syntax-ns#"
   xmlns:svg="http://www.w3.org/2000/svg"
   xmlns="http://www.w3.org/2000/svg"
   xmlns:sodipodi="http://sodipodi.sourceforge.net/DTD/sodipodi-0.dtd"
   xmlns:inkscape="http://www.inkscape.org/namespaces/inkscape"
   width="744.09448819"
   height="1052.3622047"
   id="svg2"
   version="1.1"
   inkscape:version="0.48.5 r10040"
   sodipodi:docname="rtherm.svg"
   inkscape:export-filename="/home/scrijns/AndroidStudioProjects/RTherm/app/src/main/res/drawable/rtherm.png"
   inkscape:export-xdpi="90"
   inkscape:export-ydpi="90">
  <defs
     id="defs4" />
  <sodipodi:namedview
     id="base"
     pagecolor="#ffffff"
     bordercolor="#666666"
     borderopacity="1.0"
     inkscape:pageopacity="0.0"
     inkscape:pageshadow="2"
     inkscape:zoom="5.12"
     inkscape:cx="114.37035"
     inkscape:cy="772.54449"
     inkscape:document-units="px"
     inkscape:current-layer="layer1"
     showgrid="false"
     inkscape:window-width="2560"
     inkscape:window-height="1385"
     inkscape:window-x="0"
     inkscape:window-y="0"
     inkscape:window-maximized="1" />
  <metadata
     id="metadata7">
    <rdf:RDF>
      <cc:Work
         rdf:about="">
        <dc:format>image/svg+xml</dc:format>
        <dc:type
           rdf:resource="http://purl.org/dc/dcmitype/StillImage" />
        <dc:title></dc:title>
      </cc:Work>
    </rdf:RDF>
  </metadata>
  <g
     inkscape:label="Layer 1"
     inkscape:groupmode="layer"
     id="layer1">
    <rect
       style="fill:#008080;fill-rule:evenodd;stroke:#ffffff;stroke-width:4;stroke-linecap:butt;stroke-linejoin:miter;stroke-miterlimit:4;stroke-opacity:1;stroke-dasharray:none"
       id="rect2993"
       width="128"
       height="128"
       x="111.43516"
       y="235.67874"
       rx="16"
       ry="16"
       inkscape:export-xdpi="128"
       inkscape:export-ydpi="128"
       inkscape:export-filename="/home/scrijns/AndroidStudioProjects/RTherm/app/src/main/res/drawable/rtherm.png" />
    <g
       id="g3802"
       inkscape:export-filename="/home/scrijns/AndroidStudioProjects/RTherm/app/src/main/res/drawable/rtherm.png"
       inkscape:export-xdpi="128"
       inkscape:export-ydpi="128">
      <path
         inkscape:connector-curvature="0"
         id="text2985"
         d="m 191.88306,266.29046 c -10.20277,6e-5 -18.25664,3.13012 -24.12546,9.39014 -5.86886,6.23007 -8.81229,14.73536 -8.81229,25.5701 0,10.80471 2.94343,19.38223 8.81229,25.64232 5.86882,6.23 13.92269,9.31792 24.12546,9.31792 3.97271,0 7.71672,-0.50562 11.26818,-1.5891 3.58145,-1.08348 6.9944,-2.74481 10.1847,-4.91177 l 0,-9.53461 c -3.06992,2.85918 -6.3324,5.01412 -9.82354,6.42864 -3.46117,1.41454 -7.13897,2.09472 -11.05149,2.09472 -7.70477,0 -13.6037,-2.31142 -17.69681,-7.00649 -4.09316,-4.72515 -6.13974,-11.56309 -6.13971,-20.44163 -3e-5,-8.90857 2.04655,-15.67428 6.13971,-20.3694 4.09311,-4.72512 9.99204,-7.07866 17.69681,-7.07873 3.91252,7e-5 7.59032,0.68025 11.05149,2.09473 3.49114,1.41459 6.75362,3.5695 9.82354,6.42864 l 0,-9.60685 c -3.13011,-2.13679 -6.45879,-3.71385 -10.04024,-4.7673 -3.55145,-1.08341 -7.37974,-1.66127 -11.41264,-1.66133 z"
         style="font-size:40px;font-style:normal;font-weight:normal;line-height:125%;letter-spacing:0px;word-spacing:0px;fill:#ffffff;fill-opacity:1;stroke:#ffffff;font-family:Sans;stroke-opacity:1;stroke-width:3.1;stroke-miterlimit:4;stroke-dasharray:none" />
      <g
         transform="translate(1.5625,3.90625)"
         id="g3779">
        <path
           sodipodi:type="arc"
           style="fill:#ffffff;fill-opacity:1;stroke:#ffffff;stroke-width:4;stroke-miterlimit:4;stroke-opacity:1;stroke-dasharray:none"
           id="path3763"
           sodipodi:cx="140.03906"
           sodipodi:cy="274.53015"
           sodipodi:rx="11.132812"
           sodipodi:ry="11.230469"
           d="m 151.17187,274.53015 c 0,6.20242 -4.98433,11.23047 -11.13281,11.23047 l 0,-11.23047 z"
           sodipodi:start="0"
           sodipodi:end="1.5707963"
           transform="translate(2.0468745,-2.9296875)" />
        <path
           sodipodi:end="1.5707963"
           sodipodi:start="0"
           d="m 151.17187,274.53015 c 0,6.20242 -4.98433,11.23047 -11.13281,11.23047 l 0,-11.23047 z"
           sodipodi:ry="11.230469"
           sodipodi:rx="11.132812"
           sodipodi:cy="274.53015"
           sodipodi:cx="140.03906"
           id="path3765"
           style="fill:#ffffff;fill-opacity:1;stroke:#ffffff;stroke-width:4;stroke-miterlimit:4;stroke-opacity:1;stroke-dasharray:none"
           sodipodi:type="arc"
           transform="matrix(-1,0,0,-1,287.59375,545.45092)" />
      </g>
    </g>
  </g>
</svg>
